<?xml version="1.0" encoding="UTF-8"?>
<!DOCTYPE svg PUBLIC "-//W3C//DTD SVG 1.0//EN" "http://www.w3.org/TR/2001/REC-SVG-20010904/DTD/svg10.dtd">
<!-- Creator: CorelDRAW 2020 (64-Bit) -->
<svg xmlns="http://www.w3.org/2000/svg" xml:space="preserve" width="8.38mm" height="10mm" version="1.0" shape-rendering="geometricPrecision" text-rendering="geometricPrecision" image-rendering="optimizeQuality" fill-rule="evenodd" clip-rule="evenodd"
viewBox="0 0 838 1000"
 xmlns:xlink="http://www.w3.org/1999/xlink"
 xmlns:xodm="http://www.corel.com/coreldraw/odm/2003">
 <g id="Capa_x0020_1">
  <metadata id="CorelCorpID_0Corel-Layer"/>
  <path fill="white" fill-rule="nonzero" d="M796.87 1007.07l-769.09 0 0 -70.72 769.09 0 0 70.72zm24.67 -573.26c-7.07,7.51 -16.6,11.28 -26.13,11.28 -8.89,0 -17.76,-3.27 -24.71,-9.85l-152.09 -143.71 -0.29 -0.29 -209.97 -198.42 -336.56 325.19 -17.53 16.98c-14.28,13.78 -37.08,13.41 -50.88,-0.87 -13.81,-14.31 -13.45,-37.09 0.87,-50.9l67.54 -65.27 311.28 -300.81c13.84,-13.32 35.74,-13.42 49.7,-0.29l0.28 0.29 185.27 175.11 0 -59.44 -17.01 0 0 -39.99 129.56 0 0 39.99 -17 0 0 149.74 56.83 53.7 49.42 46.69c14.44,13.67 15.08,36.45 1.42,50.87zm-203.22 -113.53l0 -0.25 0.29 0.25 -0.29 0zm150.08 143.76l0 458.64 -241.51 0 0 -432.01 -215.88 0 0 432.01 -241.52 0 0 -475.88 336.55 -325.18 362.36 342.42z"/>
 </g>
</svg>
