<?xml version="1.0" encoding="UTF-8"?>
<!DOCTYPE svg PUBLIC "-//W3C//DTD SVG 1.0//EN" "http://www.w3.org/TR/2001/REC-SVG-20010904/DTD/svg10.dtd">
<!-- Creator: CorelDRAW 2020 (64-Bit) -->
<svg xmlns="http://www.w3.org/2000/svg" xml:space="preserve" width="17.23mm" height="10mm" version="1.0" shape-rendering="geometricPrecision" text-rendering="geometricPrecision" image-rendering="optimizeQuality" fill-rule="evenodd" clip-rule="evenodd"
viewBox="0 0 1723 1000"
 xmlns:xlink="http://www.w3.org/1999/xlink"
 xmlns:xodm="http://www.corel.com/coreldraw/odm/2003">
 <g id="Capa_x0020_1">
  <metadata id="CorelCorpID_0Corel-Layer"/>
  <path fill="white" fill-rule="nonzero" d="M1373.82 1007.98c-83.45,0 -151.17,-67.66 -151.17,-151.16 0,-83.45 67.72,-151.11 151.17,-151.11 83.49,0 151.16,67.66 151.16,151.11 0,83.5 -67.67,151.16 -151.16,151.16zm187.81 -249.65c39.08,0.68 78.87,0.68 118.01,-0.67 0.67,-22.88 0.67,-45.83 -0.71,-69.42 -39.09,-0.71 -78.22,-0.71 -117.3,0 -0.67,23.59 -0.67,46.54 0,70.09zm-187.78 53.41c-22.12,0 -40.5,15.95 -44.36,36.92 -0.48,2.67 -0.8,5.37 -0.8,8.16 0,13.18 5.69,24.98 14.64,33.19 8.03,7.4 18.73,11.94 30.52,11.94 11.77,0 22.46,-4.54 30.49,-11.94 8.96,-8.21 14.6,-20.01 14.6,-33.19 0,-2.79 -0.27,-5.49 -0.76,-8.16 -3.85,-20.97 -22.23,-36.92 -44.33,-36.92zm-1156.62 19.35c-8.17,-11.71 -21.66,-19.39 -37.01,-19.39 -15.35,0 -28.92,7.68 -37.06,19.39 -3.58,5.19 -6.15,11.15 -7.35,17.57 -0.45,2.67 -0.71,5.37 -0.71,8.16 0,13.18 5.63,24.94 14.6,33.19 8.03,7.4 18.72,11.94 30.52,11.94 11.75,0 22.45,-4.54 30.48,-11.94 8.96,-8.25 14.64,-20.01 14.64,-33.19 0,-2.79 -0.31,-5.49 -0.79,-8.16 -1.21,-6.42 -3.74,-12.38 -7.32,-17.57zm362.78 -315.32c-108.93,0 -197.39,-88.6 -197.39,-197.51 0,-108.83 88.46,-197.43 197.39,-197.43 108.88,0 197.53,88.6 197.53,197.43 0,108.91 -88.65,197.51 -197.53,197.51zm95.16 -300.04l-95.12 95.12 -94.98 -95.12c-7.11,-6.97 -18.47,-6.97 -25.42,0 -7.02,7.05 -7.02,18.37 0,25.38l107.62 107.81c3.56,3.5 8.17,5.28 12.74,5.28 4.61,0 9.18,-1.78 12.73,-5.28 0,0 0,0 0,-0.05l107.77 -107.76c7.04,-7.01 7.04,-18.33 0,-25.38 -7.01,-6.97 -18.37,-6.97 -25.34,0zm-95.16 -130.88c-128.58,0 -233.37,104.7 -233.37,233.41 0,128.67 104.79,233.37 233.37,233.37 128.66,0 233.46,-104.7 233.46,-233.37 0,-128.71 -104.8,-233.41 -233.46,-233.41zm739.15 195.62c-2.54,67.07 -1.24,134.15 -0.62,201.24 64.55,0 128.49,0.67 193.04,-0.62 -17.7,-67.09 -39.22,-132.93 -56.98,-199.38 -44.93,-1.91 -90.5,-1.24 -135.44,-1.24zm-1138.99 727.51c-83.45,0 -151.15,-67.66 -151.15,-151.16 0,-8.78 0.8,-17.34 2.25,-25.73 12.16,-71.07 74.01,-125.2 148.54,-125.38l0.71 0c74.6,0.18 136.4,54.31 148.6,125.38 1.41,8.39 2.21,16.95 2.21,25.73 0,83.5 -67.65,151.16 -151.16,151.16zm-184.38 -999.96l1460.02 0 0 112.9 -282.57 0 0 559.94 -1177.45 0 0 -672.84zm1691.13 744.63c10.78,0.62 20.84,1.24 31.62,1.86 0,24.05 -0.62,48.76 -0.62,72.81 -57.58,0 -115.17,0 -172.81,-0.66 -18.98,-83.55 -99.99,-150.63 -187.3,-137.98 -79.17,4.43 -134.22,72.19 -156.41,142.41l-862.8 0c-0.04,-0.48 -0.13,-1.01 -0.22,-1.54 -10.01,-58.49 -50.7,-104.85 -103.89,-123.84l965.01 0c-1.5,-147.24 -0.26,-294.69 0,-441.92l-0.44 -0.41 0 -111 0.48 0.39c0,-0.04 0,-0.13 0,-0.18 0.28,0 0.58,0 0.85,0 89.61,-0.62 179.2,-1.24 269.45,0 -2.71,33.91 1.9,66.52 9.79,98.63 12.38,50.66 32.83,100 45.26,150.71 11.93,29.95 10.96,72.24 42.32,89.1 1.83,0.97 3.69,1.91 5.77,2.69 15.31,7.55 30.74,14.87 46.22,22.05 22.19,10.35 44.43,20.47 66.43,30.54 2.53,68.98 0.67,137.32 1.29,206.34zm-1665.17 78.44l-23.3 0 0 -125.38 127.46 0c-53.23,18.99 -93.88,65.35 -103.89,123.84 -0.14,0.53 -0.18,1.06 -0.27,1.54z"/>
 </g>
</svg>
