<?xml version="1.0" encoding="UTF-8"?>
<!DOCTYPE svg PUBLIC "-//W3C//DTD SVG 1.0//EN" "http://www.w3.org/TR/2001/REC-SVG-20010904/DTD/svg10.dtd">
<!-- Creator: CorelDRAW 2020 (64-Bit) -->
<svg xmlns="http://www.w3.org/2000/svg" xml:space="preserve" width="8mm" height="8mm" version="1.0" shape-rendering="geometricPrecision" text-rendering="geometricPrecision" image-rendering="optimizeQuality" fill-rule="evenodd" clip-rule="evenodd"
viewBox="0 0 800 800"
 xmlns:xlink="http://www.w3.org/1999/xlink"
 xmlns:xodm="http://www.corel.com/coreldraw/odm/2003">
 <g id="Capa_x0020_1">
  <metadata id="CorelCorpID_0Corel-Layer"/>
  <g id="_1869755258976">
   <path fill="white" fill-rule="nonzero" d="M768.6 406.4c0,-207.1 -167.91,-375 -374.98,-375 -207.12,0 -375.02,167.9 -375.02,375 0,187.17 137.15,342.29 316.41,370.44l0 -262.06 -95.19 0 0 -108.38 95.19 0 0 -82.63c0,-93.99 56,-145.9 141.64,-145.9 41.04,0 83.96,7.33 83.96,7.33l0 92.28 -47.31 0c-46.57,0 -61.09,28.91 -61.09,58.56l0 70.36 103.99 0 -16.61 108.38 -87.38 0 0 262.06c179.27,-28.15 316.39,-183.27 316.39,-370.44z"/>
   <path fill="#080B33" fill-rule="nonzero" d="M539.59 514.78l16.61 -108.38 -103.99 0 0 -70.36c0,-29.65 14.52,-58.56 61.09,-58.56l47.31 0 0 -92.28c0,0 -42.92,-7.33 -83.96,-7.33 -85.64,0 -141.64,51.91 -141.64,145.9l0 82.63 -95.19 0 0 108.38 95.19 0 0 262.06c19.1,2.99 38.67,4.56 58.61,4.56 19.92,0 39.49,-1.57 58.59,-4.56l0 -262.06 87.38 0z"/>
  </g>
 </g>
</svg>
