<?xml version="1.0" encoding="UTF-8"?>
<!DOCTYPE svg PUBLIC "-//W3C//DTD SVG 1.0//EN" "http://www.w3.org/TR/2001/REC-SVG-20010904/DTD/svg10.dtd">
<!-- Creator: CorelDRAW 2020 (64-Bit) -->
<svg xmlns="http://www.w3.org/2000/svg" xml:space="preserve" width="8mm" height="8mm" version="1.0" shape-rendering="geometricPrecision" text-rendering="geometricPrecision" image-rendering="optimizeQuality" fill-rule="evenodd" clip-rule="evenodd"
viewBox="0 0 800 800"
 xmlns:xlink="http://www.w3.org/1999/xlink"
 xmlns:xodm="http://www.corel.com/coreldraw/odm/2003">
 <g id="Capa_x0020_1">
  <metadata id="CorelCorpID_0Corel-Layer"/>
  <g id="_1869773255488">
   <path fill="white" fill-rule="nonzero" d="M769.7 405.3c0,207.09 -167.9,375 -374.98,375 -207.12,0 -375.02,-167.91 -375.02,-375 0,-207.12 167.9,-375 375.02,-375 207.08,0 374.98,167.88 374.98,375z"/>
   <path fill="#080B33" fill-rule="nonzero" d="M511.12 263.42c-14.24,0 -25.77,11.56 -25.77,25.78 0,14.25 11.53,25.78 25.77,25.78 14.24,0 25.77,-11.53 25.77,-25.78 0,-14.22 -11.53,-25.78 -25.77,-25.78zm-204.2 -37.13c-50,0 -90.68,40.68 -90.68,90.7l0 175.56c0,50 40.68,90.7 90.68,90.7l175.56 0c50.03,0 90.72,-40.7 90.72,-90.7l0 -175.56c0,-50.02 -40.69,-90.7 -90.72,-90.7l-175.56 0zm175.56 398.31l-175.56 0c-72.81,0 -132.05,-59.24 -132.05,-132.05l0 -175.56c0,-72.81 59.24,-132.06 132.05,-132.06l175.56 0c72.81,0 132.08,59.25 132.08,132.06l0 175.56c0,72.81 -59.27,132.05 -132.08,132.05zm-85.95 -150.47c-38.26,0 -69.38,-31.12 -69.38,-69.36 0,-38.24 31.12,-69.36 69.38,-69.36 38.23,0 69.34,31.12 69.34,69.36 0,38.24 -31.11,69.36 -69.34,69.36zm0 -177.63c-59.72,0 -108.3,48.56 -108.3,108.27 0,59.71 48.58,108.28 108.3,108.28 59.69,0 108.27,-48.57 108.27,-108.28 0,-59.71 -48.58,-108.27 -108.27,-108.27z"/>
  </g>
 </g>
</svg>
