<?xml version="1.0" encoding="UTF-8"?>
<!DOCTYPE svg PUBLIC "-//W3C//DTD SVG 1.0//EN" "http://www.w3.org/TR/2001/REC-SVG-20010904/DTD/svg10.dtd">
<!-- Creator: CorelDRAW 2020 (64-Bit) -->
<svg xmlns="http://www.w3.org/2000/svg" xml:space="preserve" width="51.05mm" height="15mm" version="1.0" shape-rendering="geometricPrecision" text-rendering="geometricPrecision" image-rendering="optimizeQuality" fill-rule="evenodd" clip-rule="evenodd"
viewBox="0 0 5105 1500"
 xmlns:xlink="http://www.w3.org/1999/xlink"
 xmlns:xodm="http://www.corel.com/coreldraw/odm/2003">
 <g id="Capa_x0020_1">
  <metadata id="CorelCorpID_0Corel-Layer"/>
  <g id="_1869709761552">
   <path fill="#FEFEFE" fill-rule="nonzero" d="M845.31 774.65l657.2 0c-49.82,-50.07 -254.67,-255.94 -329.05,-329.59 -22.97,-22.72 -145.68,-135.09 -328.15,-137.7l0 467.29zm672.81 13l-679.3 0c-3.59,0 -6.5,-2.9 -6.5,-6.49l0 -480.36c0,-3.58 2.91,-6.49 6.5,-6.49 148.03,0 274.64,73.11 343.77,141.52 84.57,83.72 337.58,338.2 340.15,340.74 1.85,1.87 2.38,4.66 1.4,7.07 -1.02,2.43 -3.38,4.01 -6.02,4.01z"/>
   <path fill="#FEFEFE" fill-rule="nonzero" d="M175.11 774.65l657.21 0 0 -467.29c-182.49,2.61 -305.18,114.98 -328.15,137.7 -74.38,73.65 -279.23,279.52 -329.06,329.59zm663.71 13l-679.33 0c-2.62,0 -4.98,-1.58 -5.99,-4.01 -1,-2.41 -0.46,-5.2 1.39,-7.07 2.55,-2.54 255.58,-257.02 340.16,-340.74 69.1,-68.41 195.7,-141.52 343.77,-141.52 3.59,0 6.49,2.91 6.49,6.49l0 480.36c0,3.59 -2.9,6.49 -6.49,6.49z"/>
   <path fill="#FEFEFE" fill-rule="nonzero" d="M175.11 787.65c49.83,50.07 254.68,255.94 329.06,329.59 22.98,22.72 145.68,135.1 328.15,137.73l0 -467.32 -657.21 0zm663.71 480.34c-148.06,0 -274.66,-73.11 -343.77,-141.52 -84.58,-83.71 -337.61,-338.19 -340.16,-340.73 -1.85,-1.88 -2.39,-4.67 -1.39,-7.08 1.01,-2.43 3.37,-4.01 5.99,-4.01l679.33 0c3.59,0 6.49,2.91 6.49,6.51l0 480.34c0,3.59 -2.9,6.49 -6.49,6.49z"/>
   <path fill="#FEFEFE" fill-rule="nonzero" d="M845.31 787.65l0 467.32c182.45,-2.63 305.18,-115.01 328.15,-137.73 74.38,-73.65 279.23,-279.52 329.05,-329.59l-657.2 0zm-6.49 480.34c-3.59,0 -6.5,-2.9 -6.5,-6.49l0 -480.34c0,-3.6 2.91,-6.51 6.5,-6.51l679.3 0c2.64,0 5,1.58 6.02,4.01 0.98,2.41 0.45,5.2 -1.4,7.08 -2.57,2.54 -255.58,257.02 -340.15,340.73 -69.13,68.41 -195.74,141.52 -343.77,141.52z"/>
   <path fill="#00AFEF" fill-rule="nonzero" d="M838.81 398.17c-211.52,0 -382.98,171.48 -382.98,382.97l382.98 0 0 -382.97z"/>
   <path fill="black" fill-rule="nonzero" d="M455.83 781.14c0,211.52 171.46,383 382.98,383l0 -383 -382.98 0z"/>
   <path fill="#FFF212" fill-rule="nonzero" d="M838.81 1164.14c211.52,0 382.99,-171.48 382.99,-383l-382.99 0 0 383z"/>
   <path fill="#EC268F" fill-rule="nonzero" d="M838.81 398.17l0 382.97 382.99 0c0,-211.49 -171.47,-382.97 -382.99,-382.97z"/>
   <path fill="#FEFEFE" fill-rule="nonzero" d="M838.81 56.23c0,0 1.38,22.64 3.78,62.31 1.04,19.82 2.31,43.87 3.76,71.48 0.67,13.81 1.4,28.5 2.16,44 0.74,15.47 -0.22,31.75 0.04,48.74 0,135.93 0,317.16 0,498.38 0,181.25 0,362.48 0,498.41 -0.3,16.98 0.75,33.27 -0.18,48.74 -0.79,15.49 -1.55,30.18 -2.26,43.99 -1.42,27.61 -2.65,51.67 -3.67,71.49 -0.94,19.82 -2.04,35.41 -2.64,46.01 -0.65,10.64 -0.99,16.29 -0.99,16.29 0,0 -0.35,-5.65 -0.99,-16.29 -0.6,-10.6 -1.69,-26.19 -2.65,-46.01 -1.01,-19.82 -2.25,-43.88 -3.67,-71.49 -0.7,-13.81 -1.46,-28.5 -2.24,-43.99 -0.93,-15.47 0.12,-31.76 -0.18,-48.74 0,-135.93 0,-317.16 0,-498.41 0,-181.22 0,-362.45 0,-498.38 0.25,-16.99 -0.7,-33.27 0.03,-48.74 0.76,-15.5 1.49,-30.19 2.16,-44 1.45,-27.61 2.72,-51.66 3.75,-71.48 2.41,-39.67 3.79,-62.31 3.79,-62.31z"/>
   <path fill="#FEFEFE" fill-rule="nonzero" d="M-5.05 781.14c0,0 6.6,-0.33 18.96,-1.01 12.36,-0.61 30.49,-1.76 53.56,-2.71 23.08,-1.01 51.09,-2.27 83.24,-3.69 16.06,-0.72 33.17,-1.46 51.19,-2.27 18.03,-0.75 36.98,0.22 56.76,-0.05 158.22,0 369.19,0 580.15,0 210.97,0 421.93,0 580.16,0 19.78,0.29 38.72,-0.74 56.76,0.18 18.02,0.79 35.12,1.55 51.2,2.25 32.12,1.42 60.14,2.66 83.23,3.67 23.06,0.95 41.19,2.06 53.56,2.66 12.36,0.64 18.94,0.97 18.94,0.97 0,0 -6.58,0.36 -18.94,0.99 -12.37,0.61 -30.5,1.72 -53.56,2.66 -23.09,1.02 -51.11,2.25 -83.23,3.67 -16.08,0.7 -33.18,1.46 -51.2,2.26 -18.04,0.91 -36.98,-0.12 -56.76,0.17 -158.23,0 -369.19,0 -580.16,0 -210.96,0 -421.93,0 -580.15,0 -19.78,-0.26 -38.73,0.7 -56.76,-0.04 -18.02,-0.81 -35.13,-1.55 -51.19,-2.27 -32.15,-1.43 -60.16,-2.68 -83.24,-3.7 -23.07,-0.95 -41.2,-2.09 -53.56,-2.7 -12.36,-0.68 -18.96,-1.04 -18.96,-1.04z"/>
   <path fill="#FEFEFE" fill-rule="nonzero" d="M2242.58 149.71c53.14,2.37 102.33,3.55 147.59,3.55 36.21,0 66.12,-1.18 89.93,-3.55l0 23.62c-19.48,7.67 -38.96,22.83 -58.25,45.26 -19.08,22.43 -36.01,54.31 -50.57,95.44l-249.13 673.98c-8.85,-0.79 -22.63,-1.18 -41.52,-1.18 -18.1,0 -31.29,0.39 -39.75,1.18l-301.47 -739.12c-10.04,-26.17 -21.65,-45.06 -35.03,-56.87 -13.18,-11.61 -26.37,-17.9 -39.36,-18.69l0 -23.62c47.23,2.37 107.25,3.55 179.86,3.55 80.29,0 140.11,-1.18 179.27,-3.55l0 23.62c-29.51,1.18 -50.77,4.72 -63.75,10.62 -12.79,6.1 -19.29,17.12 -19.29,33.26 0,12.2 4.92,30.7 14.37,55.3l208.19 528.56 145.23 -391.4c22.04,-61.79 32.86,-109.81 32.86,-144.05 0,-31.49 -8.26,-54.51 -24.99,-68.87 -16.73,-14.57 -41.52,-22.24 -74.19,-23.42l0 -23.62z"/>
   <path id="1" fill="#FEFEFE" fill-rule="nonzero" d="M2615.09 70.8c32.67,0 58.64,8.07 78.12,24.21 19.49,16.13 29.13,38.17 29.13,66.12 0,28.53 -9.64,50.77 -29.13,66.9 -19.48,16.14 -45.45,24.21 -78.12,24.21 -33.45,0 -59.82,-8.07 -78.91,-24.21 -19.28,-16.13 -28.93,-38.37 -28.93,-66.9 0,-27.95 9.65,-49.99 28.93,-66.12 19.09,-16.14 45.46,-24.21 78.91,-24.21zm92.29 805.24c0,22.04 2.36,39.16 7.48,51.36 4.92,12.4 12.79,21.06 23.61,25.98 10.83,4.92 25.59,7.48 44.48,7.48l0 24.79c-78.52,-3.15 -130.86,-4.53 -156.84,-4.53 -24.99,0 -79.89,1.38 -164.31,4.53l0 -24.79c18.69,0 33.65,-2.56 44.67,-7.48 10.82,-4.92 18.69,-13.58 23.61,-25.98 4.72,-12.2 7.08,-29.32 7.08,-51.36l0 -372.31c0,-36.6 -5.51,-62.97 -16.53,-79.31 -11.21,-16.33 -30.89,-24.59 -58.83,-24.59l0 -24.8c24.99,2.36 49.39,3.54 73.2,3.54 69.46,0 126.93,-5.31 172.38,-16.13l0 513.6z"/>
   <path id="2" fill="#FEFEFE" fill-rule="nonzero" d="M2889.01 757.97c7.68,67.89 24.21,121.22 49.79,159.59 25.58,38.57 61.79,57.66 108.82,57.66 23.02,0 42.7,-6.89 59.03,-21.06 16.34,-13.97 24.41,-35.02 24.41,-62.97 0,-22.04 -4.92,-41.52 -14.57,-58.83 -9.84,-17.32 -22.23,-32.67 -37.19,-46.25 -14.95,-13.38 -37.58,-31.88 -67.49,-55.29 -36.61,-29.52 -63.96,-52.94 -82.26,-69.67 -18.1,-16.92 -33.85,-36.99 -46.83,-60.41 -13.19,-23.22 -19.68,-49.59 -19.68,-79.11 0,-33.84 9.25,-63.16 27.74,-87.76 18.3,-24.6 43.1,-43.1 74.39,-55.89 31.09,-12.59 64.94,-19.08 101.34,-19.08 30.11,0 57.46,3.73 82.45,11.01 24.99,7.29 44.67,15.75 58.84,25.39 7.68,5.31 14.56,8.07 20.86,8.07 14.56,0 23.81,-14.37 27.55,-43.29l25.98 0c-3.15,39.55 -4.53,108.82 -4.53,207.6l-25.98 0c-6.88,-51.56 -22.43,-94.85 -46.44,-130.07 -24,-35.03 -58.83,-52.74 -104.69,-52.74 -23.41,0 -42.7,6.69 -57.65,20.27 -14.96,13.38 -22.44,31.88 -22.44,55.3 0,26.56 8.86,49.39 26.57,68.67 17.51,19.09 38.96,37.59 63.95,55.3 25,17.71 43.3,30.89 54.71,39.75 32.27,24.2 58.05,45.46 76.94,63.36 19.09,18.11 34.64,38.57 46.44,61.4 12.01,23.02 17.91,49.2 17.91,78.71 0,34.64 -10.04,65.14 -30.3,91.7 -20.08,26.57 -47.43,47.04 -81.47,61.4 -34.24,14.37 -71.83,21.65 -112.56,21.65 -41.92,0 -78.32,-8.27 -109.41,-24.8 -23.42,-12 -41.92,-20.27 -55.5,-24.79 -2.16,-0.79 -4.13,-1.18 -5.7,-1.18 -12.6,0 -21.85,13.97 -27.75,42.11l-25.78 0c2.95,-45.07 4.53,-123.58 4.53,-235.75l25.97 0z"/>
   <path id="3" fill="#FEFEFE" fill-rule="nonzero" d="M3532.3 70.8c32.67,0 58.64,8.07 78.12,24.21 19.49,16.13 29.13,38.17 29.13,66.12 0,28.53 -9.64,50.77 -29.13,66.9 -19.48,16.14 -45.45,24.21 -78.12,24.21 -33.45,0 -59.82,-8.07 -78.91,-24.21 -19.28,-16.13 -28.93,-38.37 -28.93,-66.9 0,-27.95 9.65,-49.99 28.93,-66.12 19.09,-16.14 45.46,-24.21 78.91,-24.21zm92.29 805.24c0,22.04 2.36,39.16 7.48,51.36 4.92,12.4 12.79,21.06 23.61,25.98 10.83,4.92 25.59,7.48 44.48,7.48l0 24.79c-78.52,-3.15 -130.86,-4.53 -156.84,-4.53 -24.99,0 -79.89,1.38 -164.31,4.53l0 -24.79c18.69,0 33.65,-2.56 44.67,-7.48 10.82,-4.92 18.69,-13.58 23.61,-25.98 4.72,-12.2 7.08,-29.32 7.08,-51.36l0 -372.31c0,-36.6 -5.51,-62.97 -16.53,-79.31 -11.21,-16.33 -30.89,-24.59 -58.83,-24.59l0 -24.8c24.99,2.36 49.39,3.54 73.2,3.54 69.46,0 126.93,-5.31 172.38,-16.13l0 513.6z"/>
   <path id="4" fill="#FEFEFE" fill-rule="nonzero" d="M4055.94 358.9c89.93,0 160.38,25.77 211.74,77.33 51.36,51.56 76.94,133.22 76.94,245 0,111.38 -25.58,192.84 -76.94,244.2 -51.36,51.36 -121.81,76.95 -211.74,76.95 -90.13,0 -160.77,-25.59 -212.33,-76.95 -51.36,-51.36 -77.14,-132.82 -77.14,-244.2 0,-111.38 25.78,-193.05 77.14,-244.8 51.56,-51.56 122.2,-77.53 212.33,-77.53zm0 23.22c-33.85,0 -61,24.59 -81.07,73.79 -20.27,49.2 -30.31,124.17 -30.31,225.32 0,100.75 10.04,175.53 30.31,224.33 20.07,48.8 47.22,73.2 81.07,73.2 34.04,0 61.2,-24.4 80.88,-73 19.87,-48.61 29.71,-123.39 29.71,-224.53 0,-101.54 -9.84,-176.72 -29.71,-225.71 -19.68,-49 -46.84,-73.4 -80.88,-73.4zm-78.52 -114.14c22.63,-41.13 40.74,-78.71 53.92,-112.76 13.19,-34.04 23.42,-59.42 30.5,-76.35 7.09,-16.92 16.53,-32.07 27.95,-45.06 6.49,-8.86 14.76,-15.74 24.6,-20.47 9.83,-4.72 19.87,-7.28 30.3,-7.28 16.14,0 29.91,5.12 41.52,15.15 14.56,11.42 21.84,26.57 21.84,45.46 0,17.32 -5.9,33.26 -17.9,47.82 -12.2,15.35 -30.5,31.68 -54.71,49 -24.2,17.32 -47.23,34.24 -69.27,50.57 -21.84,16.34 -47.22,37.59 -76.15,64.15l-12.6 -10.23z"/>
   <path id="5" fill="#FEFEFE" fill-rule="nonzero" d="M4663.61 468.5c35.62,-73 100.16,-109.6 193.64,-109.6 32.27,0 58.64,3.93 79.3,11.61 20.48,7.67 37.4,19.08 50.39,34.04 13.18,14.95 22.63,34.44 28.33,58.25 5.71,23.81 8.66,55.69 8.66,95.63l0 317.61c0,22.04 2.36,39.16 7.48,51.36 4.92,12.4 12.79,21.06 23.61,25.98 10.83,4.92 25.59,7.48 44.48,7.48l0 24.79c-78.52,-3.15 -130.47,-4.53 -155.67,-4.53 -24.2,0 -75.56,1.38 -154.08,4.53l0 -24.79c16.14,0 28.93,-2.56 38.18,-7.48 9.24,-4.92 15.74,-13.58 19.87,-25.98 3.94,-12.2 5.9,-29.32 5.9,-51.36l0 -367.2c0,-32.27 -5.11,-56.67 -15.74,-73.2 -10.62,-16.53 -29.71,-24.79 -57.46,-24.79 -21.45,0 -41.13,5.9 -59.03,17.9 -17.91,11.81 -31.88,28.34 -42.31,49.2 -10.43,21.05 -15.55,44.08 -15.55,69.46l0 328.63c0,22.04 1.97,39.16 6.3,51.36 4.13,12.4 11.02,21.06 20.07,25.98 9.25,4.92 21.84,7.48 37.59,7.48l0 24.79c-72.22,-3.15 -121.03,-4.53 -146.41,-4.53 -24.2,0 -78.71,1.38 -163.13,4.53l0 -24.79c18.69,0 33.65,-2.56 44.67,-7.48 10.82,-4.92 18.69,-13.58 23.61,-25.98 4.72,-12.2 7.08,-29.32 7.08,-51.36l0 -372.31c0,-36.6 -5.51,-62.97 -16.53,-79.31 -11.21,-16.33 -30.89,-24.59 -58.83,-24.59l0 -24.8c24.99,2.36 49.39,3.54 73.2,3.54 69.46,0 126.93,-5.31 172.38,-16.13l0 106.06z"/>
   <path fill="#FEFEFE" fill-rule="nonzero" d="M2722.57 1413.94c-23.36,20.94 -53.16,29.4 -85.38,29.4 -76.52,0 -133.31,-56.39 -133.31,-130.09 0,-73.7 56.79,-130.08 133.31,-130.08 34.63,0 65.24,9.26 90.61,33.83l8.06 -9.27c-24.57,-24.97 -59.61,-37.05 -99.08,-37.05 -84.17,0 -146.59,60.81 -146.59,142.57 0,81.76 62.42,142.57 146.59,142.57 38.26,0 73.7,-12.08 98.67,-36.25l0 -104.31 -12.88 0 0 98.68z"/>
   <path id="1" fill="#FEFEFE" fill-rule="nonzero" d="M3044.76 1454.21l-72.09 -100.28c43.09,-11.68 67.66,-42.69 67.66,-88.2 0,-58.8 -41.89,-93.44 -111.96,-93.44l-97.87 0 0 281.92 13.69 0 0 -94.64 84.18 0c10.87,0 21.34,-0.81 30.6,-2.42l69.68 97.06 16.11 0zm-200.57 -107.13l0 -162.3 84.98 0c63.23,0 97.87,29.4 97.87,80.95 0,51.95 -34.64,81.35 -97.87,81.35l-84.98 0z"/>
   <path id="2" fill="#FEFEFE" fill-rule="nonzero" d="M3265.87 1103.83l-21.75 0 -55.98 45.51 16.11 0 61.62 -45.51zm64.43 350.38l14.91 0 -130.49 -281.92 -13.29 0 -130.49 281.92 14.9 0 37.86 -82.56 168.75 0 37.85 82.56zm-201.37 -94.24l79.34 -171.97 78.94 171.97 -158.28 0z"/>
   <polygon id="3" fill="#FEFEFE" fill-rule="nonzero" points="3584.84,1184.78 3584.84,1172.29 3399.98,1172.29 3399.98,1454.21 3413.67,1454.21 3413.67,1325.74 3566.72,1325.74 3566.72,1313.65 3413.67,1313.65 3413.67,1184.78 "/>
   <polygon id="4" fill="#FEFEFE" fill-rule="nonzero" points="3653.71,1454.21 3667.4,1454.21 3667.4,1172.29 3653.71,1172.29 "/>
   <path id="5" fill="#FEFEFE" fill-rule="nonzero" d="M3887.3 1455.82c38.26,0 73.29,-12.48 97.86,-37.86l-8.46 -8.86c-24.97,24.17 -55.57,34.24 -89,34.24 -75.31,0 -132.1,-56.39 -132.1,-130.09 0,-73.7 56.79,-130.08 132.1,-130.08 33.43,0 64.03,9.66 89,33.83l8.46 -8.86c-24.57,-24.97 -59.6,-37.46 -97.86,-37.46 -82.97,0 -145.39,60.81 -145.39,142.57 0,81.76 62.42,142.57 145.39,142.57z"/>
   <path id="6" fill="#FEFEFE" fill-rule="nonzero" d="M4260.63 1454.21l14.91 0 -130.49 -281.92 -13.29 0 -130.49 281.92 14.9 0 37.86 -82.56 168.75 0 37.85 82.56zm-201.37 -94.24l79.34 -171.97 78.94 171.97 -158.28 0z"/>
  </g>
 </g>
</svg>
