<?xml version="1.0" encoding="UTF-8"?>
<!DOCTYPE svg PUBLIC "-//W3C//DTD SVG 1.0//EN" "http://www.w3.org/TR/2001/REC-SVG-20010904/DTD/svg10.dtd">
<!-- Creator: CorelDRAW 2020 (64-Bit) -->
<svg xmlns="http://www.w3.org/2000/svg" xml:space="preserve" width="3.8mm" height="3.8mm" version="1.0" shape-rendering="geometricPrecision" text-rendering="geometricPrecision" image-rendering="optimizeQuality" fill-rule="evenodd" clip-rule="evenodd"
viewBox="0 0 380 380"
 xmlns:xlink="http://www.w3.org/1999/xlink"
 xmlns:xodm="http://www.corel.com/coreldraw/odm/2003">
 <g id="Capa_x0020_1">
  <metadata id="CorelCorpID_0Corel-Layer"/>
  <path fill="#FEFEFE" fill-rule="nonzero" d="M346.29 361.72c-6.28,6.44 -14.61,9.68 -22.95,9.68 -8.06,0 -16.13,-3.02 -22.36,-9.1l-106.86 -104.14c-17.12,8.77 -36.46,13.82 -57.02,13.82 -69.19,0 -125.28,-56.1 -125.28,-125.29 0,-69.19 56.09,-125.29 125.28,-125.29 69.2,0 125.29,56.1 125.29,125.29 0,25.32 -7.57,48.85 -20.49,68.56l103.81 101.16c12.67,12.36 12.93,32.64 0.58,45.31zm-209.19 -297.14c-45.34,0 -82.11,36.77 -82.11,82.11 0,45.35 36.77,82.12 82.11,82.12 15.95,0 30.77,-4.62 43.37,-12.48 7.83,-4.88 14.8,-11.01 20.57,-18.17 11.35,-14.08 18.17,-31.96 18.17,-51.47 0,-45.34 -36.76,-82.11 -82.11,-82.11z"/>
 </g>
</svg>
