<?xml version="1.0" encoding="UTF-8"?>
<!DOCTYPE svg PUBLIC "-//W3C//DTD SVG 1.0//EN" "http://www.w3.org/TR/2001/REC-SVG-20010904/DTD/svg10.dtd">
<!-- Creator: CorelDRAW 2020 (64-Bit) -->
<svg xmlns="http://www.w3.org/2000/svg" xml:space="preserve" width="1.6mm" height="1.6mm" version="1.0" shape-rendering="geometricPrecision" text-rendering="geometricPrecision" image-rendering="optimizeQuality" fill-rule="evenodd" clip-rule="evenodd"
viewBox="0 0 160 160"
 xmlns:xlink="http://www.w3.org/1999/xlink"
 xmlns:xodm="http://www.corel.com/coreldraw/odm/2003">
 <g id="Capa_x0020_1">
  <metadata id="CorelCorpID_0Corel-Layer"/>
  <path fill="white" fill-rule="nonzero" d="M155.34 84.67c0,44.19 -35.82,80.01 -80.02,80.01 -44.18,0 -80,-35.82 -80,-80.01 0,-44.19 35.82,-80.01 80,-80.01 44.2,0 80.02,35.82 80.02,80.01zm-125.44 -39.94l37.09 42.09c2.11,2.39 5.15,3.76 8.34,3.76 3.19,0 6.23,-1.37 8.33,-3.76l36.46 -41.36c0.3,-0.34 0.65,-0.6 1.03,-0.82 -1.55,-0.67 -3.25,-1.05 -5.04,-1.05l-81.56 0c-1.72,0 -3.35,0.34 -4.84,0.97 0.06,0.06 0.13,0.1 0.19,0.17zm96.87 4.76c-0.17,0.43 -0.4,0.84 -0.71,1.2l-36.46 41.36c-3.61,4.1 -8.81,6.45 -14.27,6.45 -5.46,0 -10.66,-2.35 -14.27,-6.45l-37.1 -42.08c-0.08,-0.09 -0.13,-0.18 -0.19,-0.28 -1.15,1.9 -1.82,4.12 -1.82,6.5l0 56.97c0,6.95 5.64,12.59 12.6,12.59l81.56 0c6.96,0 12.6,-5.64 12.6,-12.59l0 -56.97c0,-2.46 -0.72,-4.76 -1.94,-6.7z"/>
 </g>
</svg>
