<?xml version="1.0" encoding="UTF-8"?>
<!DOCTYPE svg PUBLIC "-//W3C//DTD SVG 1.0//EN" "http://www.w3.org/TR/2001/REC-SVG-20010904/DTD/svg10.dtd">
<!-- Creator: CorelDRAW 2020 (64-Bit) -->
<svg xmlns="http://www.w3.org/2000/svg" xml:space="preserve" width="7.49mm" height="10mm" version="1.0" shape-rendering="geometricPrecision" text-rendering="geometricPrecision" image-rendering="optimizeQuality" fill-rule="evenodd" clip-rule="evenodd"
viewBox="0 0 749 1000"
 xmlns:xlink="http://www.w3.org/1999/xlink"
 xmlns:xodm="http://www.corel.com/coreldraw/odm/2003">
 <g id="Capa_x0020_1">
  <metadata id="CorelCorpID_0Corel-Layer"/>
  <path fill="white" fill-rule="nonzero" d="M737.72 447.07c-34.72,106.42 -90.37,201.42 -153.73,291.57 -21.29,30.26 -43.47,60.01 -66.08,89.45 -20.06,26.21 -40.45,52.19 -60.81,78.13 -26.6,33.89 -53.1,67.7 -78.76,101.78l-10.95 0c-25.98,-33.67 -52.69,-67.18 -79.3,-100.82 -20.42,-25.8 -40.84,-51.73 -60.87,-77.9 -22.72,-29.7 -45,-59.69 -66.41,-90.29 -60.7,-86.8 -114.12,-178.21 -149.63,-279.42 -65.65,-212.5 120.3,-440.64 335.91,-451.57l49.96 0c210.98,10.93 393.79,228.13 340.67,439.07zm-375.16 -229.33c-86.33,0 -156.38,70.01 -156.38,156.39 0,86.35 70.05,156.39 156.38,156.39 86.36,0 156.42,-70.04 156.42,-156.39 0,-86.38 -70.06,-156.39 -156.42,-156.39z"/>
 </g>
</svg>
