<?xml version="1.0" encoding="UTF-8"?>
<!DOCTYPE svg PUBLIC "-//W3C//DTD SVG 1.1//EN" "http://www.w3.org/Graphics/SVG/1.1/DTD/svg11.dtd">
<!-- Creator: CorelDRAW 2020 (64-Bit) -->
<svg xmlns="http://www.w3.org/2000/svg" xml:space="preserve" width="250mm" height="187.5mm" version="1.1" style="shape-rendering:geometricPrecision; text-rendering:geometricPrecision; image-rendering:optimizeQuality; fill-rule:evenodd; clip-rule:evenodd"
viewBox="0 0 25000 18750"
 xmlns:xlink="http://www.w3.org/1999/xlink"
 xmlns:xodm="http://www.corel.com/coreldraw/odm/2003">
 <defs>
  <style type="text/css">
   <![CDATA[
    .fil1 {fill:#080B33;fill-rule:nonzero}
    .fil0 {fill:white;fill-rule:nonzero}
   ]]>
  </style>
 </defs>
 <g id="Capa_x0020_1">
  <metadata id="CorelCorpID_0Corel-Layer"/>
  <g id="_1869603672224">
   <g>
    <path class="fil0" d="M39010.33 18520.82c0,94.68 -76.77,171.45 -171.44,171.45 -94.69,0 -171.46,-76.77 -171.46,-171.45 0,-94.69 76.77,-171.45 171.46,-171.45 94.67,0 171.44,76.76 171.44,171.45z"/>
    <path class="fil1" d="M38892.1 18455.96c-6.51,0 -11.78,5.28 -11.78,11.78 0,6.51 5.27,11.79 11.78,11.79 6.52,0 11.79,-5.28 11.79,-11.79 0,-6.5 -5.27,-11.78 -11.79,-11.78zm-93.35 -16.98c-22.86,0 -41.46,18.6 -41.46,41.47l0 80.26c0,22.86 18.6,41.47 41.46,41.47l80.26 0c22.87,0 41.48,-18.61 41.48,-41.47l0 -80.26c0,-22.87 -18.61,-41.47 -41.48,-41.47l-80.26 0zm80.26 182.11l-80.26 0c-33.29,0 -60.38,-27.09 -60.38,-60.38l0 -80.26c0,-33.29 27.09,-60.38 60.38,-60.38l80.26 0c33.29,0 60.39,27.09 60.39,60.38l0 80.26c0,33.29 -27.1,60.38 -60.39,60.38zm-39.3 -68.8c-17.49,0 -31.72,-14.23 -31.72,-31.71 0,-17.48 14.23,-31.71 31.72,-31.71 17.49,0 31.71,14.23 31.71,31.71 0,17.48 -14.22,31.71 -31.71,31.71zm0 -81.21c-27.3,0 -49.51,22.2 -49.51,49.5 0,27.3 22.21,49.5 49.51,49.5 27.29,0 49.51,-22.2 49.51,-49.5 0,-27.3 -22.22,-49.5 -49.51,-49.5z"/>
   </g>
   <g>
    <path class="fil0" d="M38459.53 18520.82c0,-94.69 -76.77,-171.45 -171.44,-171.45 -94.7,0 -171.46,76.76 -171.46,171.45 0,85.57 62.7,156.5 144.66,169.37l0 -119.82 -43.52 0 0 -49.55 43.52 0 0 -37.78c0,-42.97 25.6,-66.7 64.76,-66.7 18.76,0 38.38,3.35 38.38,3.35l0 42.19 -21.63 0c-21.29,0 -27.93,13.22 -27.93,26.77l0 32.17 47.55 0 -7.6 49.55 -39.95 0 0 119.82c81.96,-12.87 144.66,-83.8 144.66,-169.37z"/>
    <path class="fil1" d="M38354.82 18570.37l7.6 -49.55 -47.55 0 0 -32.17c0,-13.55 6.64,-26.77 27.93,-26.77l21.63 0 0 -42.19c0,0 -19.62,-3.35 -38.38,-3.35 -39.16,0 -64.76,23.73 -64.76,66.7l0 37.78 -43.52 0 0 49.55 43.52 0 0 119.82c8.73,1.36 17.68,2.08 26.8,2.08 9.1,0 18.05,-0.72 26.78,-2.08l0 -119.82 39.95 0z"/>
   </g>
   <g>
    <path class="fil0" d="M39561.13 18520.83c0,94.68 -76.76,171.44 -171.44,171.44 -94.69,0 -171.46,-76.76 -171.46,-171.44 0,-94.69 76.77,-171.46 171.46,-171.46 94.68,0 171.44,76.77 171.44,171.46z"/>
    <path class="fil1" d="M39478.72 18501.07c-1.76,0.16 -3.52,0.26 -5.29,0.26 -19.32,0.01 -37.34,-9.74 -47.93,-25.9l0 88.22c0,36 -29.19,65.2 -65.19,65.2 -36.02,0 -65.22,-29.2 -65.22,-65.2 0,-36.02 29.2,-65.21 65.22,-65.21l0 0c1.35,0 2.68,0.13 4.03,0.22l0 32.12c-1.35,-0.16 -2.67,-0.4 -4.03,-0.4 -18.39,0 -33.28,14.89 -33.28,33.28 0,18.37 14.89,33.27 33.28,33.27 18.37,0 34.61,-14.48 34.61,-32.86l0.31 -149.82 30.74 0c2.91,27.55 25.14,49.08 52.77,51.11l0 35.71 -0.02 0z"/>
   </g>
  </g>
 </g>
</svg>
