<?xml version="1.0" encoding="UTF-8"?>
<!DOCTYPE svg PUBLIC "-//W3C//DTD SVG 1.0//EN" "http://www.w3.org/TR/2001/REC-SVG-20010904/DTD/svg10.dtd">
<!-- Creator: CorelDRAW 2020 (64-Bit) -->
<svg xmlns="http://www.w3.org/2000/svg" xml:space="preserve" width="8mm" height="8mm" version="1.0" shape-rendering="geometricPrecision" text-rendering="geometricPrecision" image-rendering="optimizeQuality" fill-rule="evenodd" clip-rule="evenodd"
viewBox="0 0 800 800"
 xmlns:xlink="http://www.w3.org/1999/xlink"
 xmlns:xodm="http://www.corel.com/coreldraw/odm/2003">
 <g id="Capa_x0020_1">
  <metadata id="CorelCorpID_0Corel-Layer"/>
  <g id="_1869773243008">
   <path fill="white" fill-rule="nonzero" d="M768.6 406.42c0,207.08 -167.91,374.98 -374.98,374.98 -207.12,0 -375.02,-167.9 -375.02,-374.98 0,-207.12 167.9,-375.02 375.02,-375.02 207.07,0 374.98,167.9 374.98,375.02z"/>
   <path fill="#080B33" fill-rule="nonzero" d="M588.34 363.2c-3.84,0.36 -7.7,0.57 -11.55,0.57 -42.27,0.02 -81.68,-21.3 -104.85,-56.66l0 192.96c0,78.75 -63.84,142.62 -142.59,142.62 -78.77,0 -142.63,-63.87 -142.63,-142.62 0,-78.77 63.86,-142.61 142.63,-142.61l0 0c2.97,0 5.87,0.27 8.82,0.46l0 70.27c-2.95,-0.36 -5.83,-0.89 -8.82,-0.89 -40.21,0 -72.79,32.58 -72.79,72.79 0,40.19 32.58,72.77 72.79,72.77 40.19,0 75.7,-31.67 75.7,-71.86l0.69 -327.7 67.24 0c6.36,60.26 54.97,107.36 115.42,111.79l0 78.11 -0.06 0z"/>
  </g>
 </g>
</svg>
