<?xml version="1.0" encoding="UTF-8"?>
<!DOCTYPE svg PUBLIC "-//W3C//DTD SVG 1.0//EN" "http://www.w3.org/TR/2001/REC-SVG-20010904/DTD/svg10.dtd">
<!-- Creator: CorelDRAW 2020 (64-Bit) -->
<svg xmlns="http://www.w3.org/2000/svg" xml:space="preserve" width="1.6mm" height="1.6mm" version="1.0" shape-rendering="geometricPrecision" text-rendering="geometricPrecision" image-rendering="optimizeQuality" fill-rule="evenodd" clip-rule="evenodd"
viewBox="0 0 160 160"
 xmlns:xlink="http://www.w3.org/1999/xlink"
 xmlns:xodm="http://www.corel.com/coreldraw/odm/2003">
 <g id="Capa_x0020_1">
  <metadata id="CorelCorpID_0Corel-Layer"/>
  <path fill="white" fill-rule="nonzero" d="M155.34 84.68c0,44.18 -35.82,80.01 -80.02,80.01 -44.18,0 -80,-35.83 -80,-80.01 0,-44.19 35.82,-80.02 80,-80.02 44.2,0 80.02,35.83 80.02,80.02zm-80.02 6.24c-11.23,0 -20.37,-9.14 -20.37,-20.38 0,-11.24 9.14,-20.38 20.37,-20.38 11.25,0 20.38,9.14 20.38,20.38 0,11.24 -9.13,20.38 -20.38,20.38zm0 -59.62c-22.76,0 -41.21,18.45 -41.21,41.21 0,19.42 29.97,54.53 38.8,64.45 1.29,1.46 3.55,1.46 4.83,0 8.84,-9.92 38.8,-45.03 38.8,-64.45 0,-22.76 -18.45,-41.21 -41.22,-41.21z"/>
 </g>
</svg>
