<?xml version="1.0" encoding="UTF-8"?>
<!DOCTYPE svg PUBLIC "-//W3C//DTD SVG 1.0//EN" "http://www.w3.org/TR/2001/REC-SVG-20010904/DTD/svg10.dtd">
<!-- Creator: CorelDRAW 2020 (64-Bit) -->
<svg xmlns="http://www.w3.org/2000/svg" xml:space="preserve" width="1.6mm" height="1.6mm" version="1.0" shape-rendering="geometricPrecision" text-rendering="geometricPrecision" image-rendering="optimizeQuality" fill-rule="evenodd" clip-rule="evenodd"
viewBox="0 0 160 160"
 xmlns:xlink="http://www.w3.org/1999/xlink"
 xmlns:xodm="http://www.corel.com/coreldraw/odm/2003">
 <g id="Capa_x0020_1">
  <metadata id="CorelCorpID_0Corel-Layer"/>
  <g id="_1869758168288">
   <path fill="white" fill-rule="nonzero" d="M153.51 88c0,44.18 -35.82,80.01 -80.01,80.01 -44.19,0 -80.01,-35.83 -80.01,-80.01 0,-44.19 35.82,-80.01 80.01,-80.01 44.19,0 80.01,35.82 80.01,80.01z"/>
   <path fill="#080B33" fill-rule="nonzero" d="M56.54 117.24l1.57 0.94c5.79,3.45 12.36,5.27 19.03,5.27 20.55,0 37.27,-16.72 37.27,-37.27 0,-20.55 -16.72,-37.27 -37.27,-37.27 -20.55,0 -37.27,16.72 -37.27,37.27 0,6.78 1.88,13.47 5.45,19.33l0.96 1.58 -3.72 13.9 13.98 -3.75zm37.69 -24.67c-1.89,-1.13 -4.35,-2.39 -6.58,-1.48 -1.71,0.7 -2.8,3.37 -3.91,4.74 -0.56,0.7 -1.24,0.81 -2.12,0.46 -6.41,-2.55 -11.33,-6.84 -14.87,-12.74 -0.6,-0.92 -0.5,-1.64 0.22,-2.49 1.08,-1.26 2.42,-2.69 2.71,-4.39 0.29,-1.69 -0.51,-3.69 -1.21,-5.2 -0.9,-1.92 -1.89,-4.68 -3.83,-5.77 -1.78,-1.01 -4.12,-0.44 -5.71,0.85 -2.73,2.22 -4.05,5.71 -4.01,9.17 0.01,0.99 0.13,1.96 0.36,2.91 0.55,2.28 1.6,4.41 2.79,6.44 0.9,1.53 1.87,3.01 2.92,4.44 3.43,4.66 7.7,8.71 12.65,11.74 2.47,1.51 5.13,2.84 7.88,3.75 3.09,1.02 5.85,2.08 9.18,1.45 3.5,-0.67 6.94,-2.82 8.33,-6.19 0.41,-1 0.62,-2.11 0.38,-3.16 -0.47,-2.18 -3.41,-3.47 -5.18,-4.53zm-63.96 40.71l6.68 -24.9c-3.78,-6.81 -5.77,-14.45 -5.77,-22.2 0,-25.34 20.62,-45.96 45.96,-45.96 25.34,0 45.95,20.62 45.95,45.96 0,25.34 -20.61,45.96 -45.95,45.96 -7.61,0 -15.12,-1.92 -21.85,-5.57l-25.02 6.71z"/>
  </g>
 </g>
</svg>
